<svg width="162" height="30" viewBox="0 0 162 30" fill="none" xmlns="http://www.w3.org/2000/svg">
<path d="M24.1005 0C25.7338 0.00615823 27.357 0.233378 28.9168 0.674188C30.1378 1.18057 31.1689 2.00106 31.8828 3.0343C32.6394 4.14678 33.0268 5.43414 32.9986 6.74188C32.7763 8.45175 32.4042 10.1428 31.8858 11.7987L29.6613 17.1922C29.6613 17.1922 28.1783 20.2266 27.4368 21.9116C26.8389 23.4281 26.0944 24.8935 25.2122 26.2906C24.3184 27.1707 23.3242 27.9619 22.2462 28.6507C21.2815 29.0434 20.2909 29.3813 19.2802 29.6624C17.7972 29.6624 16.6844 30 15.2014 30H0L12.9769 0.33755L13.0551 0.125897L24.1005 0ZM22.9877 8.76444C23.167 8.57766 23.2657 8.33815 23.2657 8.09026C23.2657 7.84236 23.167 7.60285 22.9877 7.41607C22.8414 7.28799 22.6655 7.19128 22.4728 7.13304C22.2801 7.07479 22.0755 7.05647 21.8739 7.07943H20.0217L12.6066 23.935H14.4609C14.8321 23.935 15.2024 23.5975 15.9439 23.2609C16.4024 22.8768 16.7798 22.4199 17.0577 21.9125L22.9877 8.76444Z" fill="black"/>
<path d="M63.6165 0.860754L60.6697 7.15911H46.24L44.76 10.9093H56.2299L52.8996 18.0685H41.4297L39.5793 21.8187H54.01L50.6797 30H27L40.3173 0H64L63.6165 0.860754Z" fill="black"/>
<path d="M77.278 0.0261994C78.9047 -0.0561938 80.5365 0.0559599 82.1298 0.359672C83.2253 0.597972 84.2466 1.05327 85.1177 1.69176C85.7416 2.27568 86.2471 2.95177 86.6116 3.68989C86.918 4.43517 87.0455 5.22952 86.9856 6.0215C87.0446 6.70473 86.9162 7.3905 86.6116 8.01963L76.9041 30H67.1934L70.1813 23.3396H66.0725L63.0846 30H53L63.8316 6.0206C64.2179 5.1906 64.7198 4.40725 65.3255 3.68899L66.8195 2.3569C67.4865 1.94646 68.2025 1.60309 68.9542 1.33305C69.9969 0.910105 71.0988 0.614524 72.2302 0.454306C73.8821 0.101859 75.5813 -0.0422473 77.278 0.0261994ZM76.1571 9.01825C76.2582 8.87765 76.6746 7.75015 76.3016 7.41758C75.9747 7.13264 75.5347 6.97453 75.0776 6.97776C74.5281 6.96918 73.9912 7.12392 73.5513 7.41758C73.092 7.90073 72.7122 8.43969 72.4232 9.01825L69.8083 15.0127H73.5482L76.1571 9.01825Z" fill="black"/>
<path d="M102.258 23.182L99.2905 30H80L93.3523 0H103L92.9838 23.182H102.258Z" fill="black"/>
<path d="M139 0L135.619 7.41539H120.94L119.059 11.1235H130.723L127.337 18.2023H115.673L113.792 21.9105H128.466L125.456 30H101L114.542 0H139Z" fill="black"/>
<path d="M154.975 0.00981612C156.414 -0.0654313 157.841 0.293514 159.04 1.03238C160.062 1.56261 160.847 2.40884 161.257 3.42143C161.718 4.38804 161.97 5.42809 162 6.48359C161.931 7.53548 161.682 8.57064 161.261 9.55035C160.867 10.5718 160.235 11.5013 159.409 12.2732C158.703 12.8769 157.963 13.4457 157.192 13.9772C156.484 14.4725 155.743 14.9276 154.975 15.34L152.758 16.3625C153.43 16.5349 154.034 16.8847 154.493 17.3689C154.953 17.8532 155.249 18.4508 155.345 19.0881C155.715 20.4509 155.345 21.8137 154.606 23.8579L152.019 29.9905H143.889C143.688 30.0134 143.485 29.9947 143.293 29.9356C143.101 29.8766 142.926 29.7788 142.78 29.6494C142.41 29.3082 142.41 28.968 142.41 28.2866L145.366 21.4726C145.5 21.2666 145.57 21.0311 145.57 20.7912C145.57 20.5512 145.5 20.3157 145.366 20.1098C145.22 19.9803 145.045 19.8825 144.853 19.8235C144.661 19.7645 144.458 19.7457 144.257 19.7686H142.411L137.977 29.9933H128L140.933 0.00981612H154.975ZM150.91 8.52779C151.089 8.33901 151.187 8.09694 151.187 7.84639C151.187 7.59584 151.089 7.35377 150.91 7.16499C150.54 6.82383 150.171 6.48359 149.801 6.48359H147.954L145.737 11.2534H147.585C148.173 11.1865 148.726 10.9621 149.177 10.608C149.67 10.272 150.084 9.84607 150.391 9.35672L150.91 8.52779Z" fill="black"/>
</svg>
